<?xml version="1.0" encoding="iso-8859-1"?>
<!-- Generator: Adobe Illustrator 19.0.0, SVG Export Plug-In . SVG Version: 6.00 Build 0)  -->
<svg xmlns="http://www.w3.org/2000/svg" xmlns:xlink="http://www.w3.org/1999/xlink" version="1.1" id="Layer_1" x="0px" y="0px" viewBox="0 0 512 512" style="enable-background:new 0 0 512 512;" xml:space="preserve">
<path style="fill:#00AEEF;" d="M501.961,97.799v37.396H10.039V97.799c0-19.265,15.621-34.886,34.886-34.886h422.149  C486.34,62.913,501.961,78.534,501.961,97.799z"/>
<path style="fill:#EFEFEF;" d="M501.961,135.195v309.459c0,19.265-15.621,34.886-34.886,34.886H44.925  c-19.265,0-34.886-15.621-34.886-34.886V135.195L501.961,135.195L501.961,135.195z"/>
<g>
	<path style="fill:#231F20;" d="M467.075,52.874H437.04V32.46c0-5.544-4.495-10.039-10.039-10.039s-10.039,4.496-10.039,10.039   v20.413H368.64V32.46c0-5.544-4.495-10.039-10.039-10.039c-5.545,0-10.039,4.496-10.039,10.039v20.413H300.24V32.46   c0-5.544-4.495-10.039-10.039-10.039c-5.545,0-10.039,4.496-10.039,10.039v20.413h-48.323V32.46   c0-5.544-4.495-10.039-10.039-10.039c-5.545,0-10.039,4.496-10.039,10.039v20.413h-48.322V32.46   c0-5.544-4.495-10.039-10.039-10.039c-5.545,0-10.039,4.496-10.039,10.039v20.413H95.038V32.46c0-5.544-4.495-10.039-10.039-10.039   S74.96,26.916,74.96,32.46v20.413H44.925C20.154,52.874,0,73.027,0,97.799v346.855c0,24.772,20.154,44.925,44.925,44.925h422.149   c24.772,0,44.925-20.154,44.925-44.925V97.799C512,73.027,491.846,52.874,467.075,52.874z M20.078,97.799   c0-13.701,11.147-24.847,24.847-24.847H74.96v16.063c0,5.544,4.495,10.039,10.039,10.039s10.039-4.496,10.039-10.039V72.952h48.322   v16.063c0,5.544,4.495,10.039,10.039,10.039c5.545,0,10.039-4.496,10.039-10.039V72.952h48.322v16.063   c0,5.544,4.495,10.039,10.039,10.039c5.545,0,10.039-4.496,10.039-10.039V72.952h48.323v16.063c0,5.544,4.495,10.039,10.039,10.039   c5.545,0,10.039-4.496,10.039-10.039V72.952h48.322v16.063c0,5.544,4.495,10.039,10.039,10.039c5.545,0,10.039-4.496,10.039-10.039   V72.952h48.322v16.063c0,5.544,4.495,10.039,10.039,10.039s10.039-4.496,10.039-10.039V72.952h30.034   c13.701,0,24.847,11.147,24.847,24.847v27.357H20.078V97.799z M491.922,444.654c0,13.701-11.147,24.847-24.847,24.847H44.925   c-13.701,0-24.847-11.147-24.847-24.847v-299.42h471.843V444.654z"/>
	<path style="fill:#231F20;" d="M137.907,394.45c14.821,0,28.796-3.675,41.074-10.154c11.008,6.442,23.8,10.154,37.45,10.154   c41.023,0,74.399-33.375,74.399-74.399c0-41.024-33.375-74.4-74.399-74.4c-4.484,0-8.868,0.421-13.134,1.185   c-16.168-17.813-39.495-29.015-65.39-29.015c-48.697,0-88.315,39.619-88.315,88.316S89.209,394.45,137.907,394.45z M162.11,320.05   c0-22.6,13.876-42.014,33.554-50.187c6.628,10.516,10.48,22.949,10.48,36.271c0,21.891-10.374,41.392-26.449,53.888   C168.893,350.088,162.11,335.848,162.11,320.05z M216.431,265.729c29.952,0,54.32,24.368,54.32,54.321s-24.368,54.32-54.32,54.32   c-6.573,0-12.875-1.175-18.711-3.323c17.512-16.148,28.502-39.27,28.502-64.914c0-14.551-3.54-28.29-9.8-40.406   C216.425,265.729,216.428,265.729,216.431,265.729z M137.907,237.897c16.804,0,32.199,6.118,44.102,16.227   c-23.737,12.445-39.977,37.317-39.977,65.926c0,19.287,7.38,36.882,19.462,50.115c-7.355,2.718-15.3,4.205-23.587,4.205   c-37.626,0-68.237-30.611-68.237-68.237C69.67,268.508,100.281,237.897,137.907,237.897z"/>
	<path style="fill:#231F20;" d="M107.922,185.391h3.514c5.545,0,10.039-4.496,10.039-10.039s-4.495-10.039-10.039-10.039h-3.514   c-5.545,0-10.039,4.496-10.039,10.039S102.377,185.391,107.922,185.391z"/>
	<path style="fill:#231F20;" d="M156.612,185.391h150.086c5.545,0,10.039-4.496,10.039-10.039s-4.495-10.039-10.039-10.039H156.612   c-5.545,0-10.039,4.496-10.039,10.039S151.068,185.391,156.612,185.391z"/>
	<path style="fill:#231F20;" d="M368.941,401.736h37.145c21.589,0,39.153-17.564,39.153-39.153v-37.145   c0-11.548-5.029-21.941-13.007-29.114c7.979-7.173,13.007-17.566,13.007-29.114v-37.145c0-21.589-17.564-39.153-39.153-39.153   h-37.145c-21.589,0-39.153,17.564-39.153,39.153v37.145c0,11.548,5.029,21.941,13.007,29.114   c-7.979,7.173-13.007,17.566-13.007,29.114v37.145C329.788,384.172,347.352,401.736,368.941,401.736z M349.867,267.211v-37.145   c0-10.518,8.556-19.075,19.074-19.075h37.145c10.518,0,19.074,8.556,19.074,19.075v37.145c0,10.518-8.556,19.074-19.074,19.074   h-37.145C358.423,286.285,349.867,277.728,349.867,267.211z M406.086,306.364c10.518,0,19.074,8.556,19.074,19.075v37.145   c0,10.518-8.556,19.075-19.074,19.075h-37.145c-10.518,0-19.074-8.556-19.074-19.075v-37.145c0-10.518,8.556-19.075,19.074-19.075   H406.086z"/>
	<path style="fill:#231F20;" d="M330.792,441.893h113.443c5.545,0,10.039-4.496,10.039-10.039c0-5.544-4.495-10.039-10.039-10.039   H330.792c-5.545,0-10.039,4.496-10.039,10.039C320.753,437.398,325.247,441.893,330.792,441.893z"/>
</g>
<g>
</g>
<g>
</g>
<g>
</g>
<g>
</g>
<g>
</g>
<g>
</g>
<g>
</g>
<g>
</g>
<g>
</g>
<g>
</g>
<g>
</g>
<g>
</g>
<g>
</g>
<g>
</g>
<g>
</g>
</svg>
