<?xml version="1.0" encoding="iso-8859-1"?>
<!-- Generator: Adobe Illustrator 19.0.0, SVG Export Plug-In . SVG Version: 6.00 Build 0)  -->
<svg xmlns="http://www.w3.org/2000/svg" xmlns:xlink="http://www.w3.org/1999/xlink" version="1.1" id="Layer_1" x="0px" y="0px" viewBox="0 0 512 512" style="enable-background:new 0 0 512 512;" xml:space="preserve">
<g>
	<rect x="30.118" y="208.324" style="fill:#EFEFEF;" width="451.765" height="286.118"/>
	<rect x="10.039" y="117.971" style="fill:#EFEFEF;" width="491.922" height="90.353"/>
</g>
<g>
	<path style="fill:#EF584F;" d="M410.926,255.678c-11.164,0-20.362,8.391-21.647,19.209c-1.285-10.818-10.483-19.209-21.647-19.209   c-12.043,0-21.806,9.763-21.806,21.806c0,22.937,43.45,48.457,43.45,48.457h0.004c0,0,43.45-25.521,43.45-48.457   C432.732,265.44,422.969,255.678,410.926,255.678z"/>
	<path style="fill:#EF584F;" d="M410.926,376.817c-11.164,0-20.362,8.391-21.647,19.209c-1.285-10.818-10.483-19.209-21.647-19.209   c-12.043,0-21.806,9.763-21.806,21.806c0,22.937,43.45,48.457,43.45,48.457h0.004c0,0,43.45-25.521,43.45-48.457   C432.732,386.58,422.969,376.817,410.926,376.817z"/>
	<path style="fill:#EF584F;" d="M144.367,255.678c-11.164,0-20.362,8.391-21.647,19.209c-1.285-10.818-10.483-19.209-21.647-19.209   c-12.043,0-21.806,9.763-21.806,21.806c0,22.937,43.45,48.457,43.45,48.457h0.004c0,0,43.45-25.521,43.45-48.457   C166.173,265.44,156.41,255.678,144.367,255.678z"/>
	<path style="fill:#EF584F;" d="M144.367,376.817c-11.164,0-20.362,8.391-21.647,19.209c-1.285-10.818-10.483-19.209-21.647-19.209   c-12.043,0-21.806,9.763-21.806,21.806c0,22.937,43.45,48.457,43.45,48.457h0.004c0,0,43.45-25.521,43.45-48.457   C166.173,386.58,156.41,376.817,144.367,376.817z"/>
</g>
<g>
	<rect x="205.804" y="57.735" style="fill:#41A85F;" width="100.392" height="60.235"/>
	<rect x="215.843" y="117.971" style="fill:#41A85F;" width="80.314" height="376.471"/>
	<path style="fill:#41A85F;" d="M359.507,22.657l-53.311,35.074v60.235h100.392V48.038C406.588,23.856,379.709,9.365,359.507,22.657   z"/>
	<path style="fill:#41A85F;" d="M152.493,22.657l53.311,35.074v60.235H105.412V48.038C105.412,23.856,132.291,9.365,152.493,22.657z   "/>
</g>
<g>
	<path style="fill:#231F20;" d="M361.044,317.957c11.399,9.704,22.674,16.361,23.148,16.64c1.541,0.905,3.301,1.382,5.089,1.382   s3.543-0.478,5.084-1.382c0.475-0.279,11.75-6.936,23.148-16.64c16.758-14.267,25.257-27.884,25.257-40.473   c0-17.56-14.286-31.845-31.845-31.845c-8.303,0-15.937,3.201-21.647,8.49c-5.71-5.29-13.343-8.49-21.647-8.49   c-17.56,0-31.844,14.285-31.844,31.845C335.789,290.073,344.286,303.69,361.044,317.957z M367.633,265.717   c5.956,0,10.977,4.451,11.678,10.353c0.6,5.051,4.882,8.855,9.969,8.855c5.087,0,9.37-3.804,9.969-8.855   c0.701-5.903,5.721-10.353,11.678-10.353c6.488,0,11.767,5.279,11.767,11.767c0,10.459-18.417,26.765-33.413,36.626   c-14.999-9.864-33.414-26.169-33.414-36.626C355.867,270.995,361.145,265.717,367.633,265.717z"/>
	<path style="fill:#231F20;" d="M410.926,366.779c-8.303,0-15.937,3.201-21.647,8.49c-5.71-5.29-13.343-8.49-21.647-8.49   c-17.56,0-31.844,14.285-31.844,31.844c0,12.59,8.497,26.207,25.257,40.474c11.399,9.704,22.674,16.361,23.148,16.64   c1.541,0.905,3.301,1.382,5.089,1.382s3.543-0.478,5.084-1.382c0.475-0.279,11.75-6.936,23.148-16.64   c16.758-14.267,25.257-27.884,25.257-40.474C442.772,381.063,428.486,366.779,410.926,366.779z M389.274,435.254   c-14.997-9.84-33.406-26.132-33.406-36.631c0-6.487,5.279-11.766,11.766-11.766c5.956,0,10.977,4.451,11.678,10.353   c0.6,5.051,4.883,8.855,9.969,8.855s9.37-3.804,9.969-8.855c0.701-5.902,5.721-10.353,11.678-10.353   c6.488,0,11.767,5.279,11.767,11.766C422.693,409.084,404.27,425.393,389.274,435.254z"/>
	<path style="fill:#231F20;" d="M94.485,317.957c11.399,9.704,22.674,16.361,23.148,16.64c1.541,0.905,3.301,1.382,5.089,1.382   c1.788,0,3.543-0.478,5.084-1.382c0.475-0.279,11.75-6.936,23.148-16.64c16.758-14.267,25.257-27.884,25.257-40.473   c0-17.56-14.285-31.845-31.844-31.845c-8.303,0-15.937,3.201-21.647,8.49c-5.71-5.29-13.343-8.49-21.647-8.49   c-17.56,0-31.845,14.285-31.845,31.845C69.228,290.073,77.727,303.69,94.485,317.957z M101.074,265.717   c5.956,0,10.977,4.451,11.678,10.353c0.6,5.051,4.882,8.855,9.969,8.855c5.087,0,9.37-3.804,9.969-8.855   c0.701-5.903,5.721-10.353,11.678-10.353c6.487,0,11.766,5.279,11.766,11.767c0,10.459-18.417,26.765-33.413,36.626   c-14.999-9.864-33.414-26.169-33.414-36.626C89.307,270.995,94.585,265.717,101.074,265.717z"/>
	<path style="fill:#231F20;" d="M144.367,366.779c-8.303,0-15.937,3.201-21.647,8.49c-5.71-5.29-13.343-8.49-21.647-8.49   c-17.56,0-31.845,14.285-31.845,31.844c0,12.59,8.497,26.207,25.257,40.474c11.399,9.704,22.674,16.361,23.148,16.64   c1.541,0.905,3.301,1.382,5.089,1.382c1.788,0,3.543-0.478,5.084-1.382c0.475-0.279,11.75-6.936,23.148-16.64   c16.758-14.267,25.257-27.884,25.257-40.474C176.211,381.063,161.927,366.779,144.367,366.779z M122.714,435.254   c-14.997-9.84-33.407-26.132-33.407-36.631c0-6.487,5.279-11.766,11.767-11.766c5.956,0,10.977,4.451,11.678,10.353   c0.6,5.051,4.883,8.855,9.969,8.855s9.37-3.804,9.969-8.855c0.701-5.902,5.721-10.353,11.678-10.353   c6.487,0,11.766,5.279,11.766,11.766C156.133,409.084,137.711,425.393,122.714,435.254z"/>
	<path style="fill:#231F20;" d="M501.961,107.927h-85.333V48.038c0-15.109-7.94-28.41-21.24-35.58   c-13.299-7.171-28.775-6.492-41.398,1.812l-50.8,33.423h-94.379l-50.8-33.423c-12.622-8.304-28.098-8.979-41.398-1.812   c-13.3,7.17-21.24,20.471-21.24,35.58v59.889H10.039C4.495,107.927,0,112.423,0,117.967v90.353c0,5.544,4.495,10.039,10.039,10.039   h10.039v276.078c0,5.544,4.495,10.039,10.039,10.039h451.765c5.545,0,10.039-4.496,10.039-10.039V218.359h10.039   c5.545,0,10.039-4.496,10.039-10.039v-90.353C512,112.423,507.505,107.927,501.961,107.927z M365.025,31.044   c6.353-4.179,14.141-4.522,20.834-0.912c6.694,3.608,10.69,10.302,10.69,17.906v59.889h-80.314V63.143L365.025,31.044z    M225.882,128.006h60.235v356.392h-60.235V128.006z M296.157,107.927h-80.314V67.771h80.314V107.927z M115.451,48.038   c0-7.604,3.996-14.298,10.689-17.906c6.693-3.611,14.482-3.269,20.834,0.912l48.791,32.099v44.784h-80.314V48.038z M20.078,128.006   h185.726v70.275H20.078V128.006z M40.157,218.359h165.647v266.039H40.157V218.359z M471.843,484.398H306.196V218.359h165.647   V484.398z M491.922,198.28H306.196v-70.275h185.725V198.28z"/>
	<path style="fill:#231F20;" d="M256,203.509c-5.545,0-10.039,4.496-10.039,10.039v79.31c0,5.544,4.495,10.039,10.039,10.039   c5.545,0,10.039-4.496,10.039-10.039v-79.31C266.039,208.004,261.545,203.509,256,203.509z"/>
	<path style="fill:#231F20;" d="M256,328.999c-5.545,0-10.039,4.496-10.039,10.039v1.004c0,5.544,4.495,10.039,10.039,10.039   c5.545,0,10.039-4.496,10.039-10.039v-1.004C266.039,333.495,261.545,328.999,256,328.999z"/>
</g>
<g>
</g>
<g>
</g>
<g>
</g>
<g>
</g>
<g>
</g>
<g>
</g>
<g>
</g>
<g>
</g>
<g>
</g>
<g>
</g>
<g>
</g>
<g>
</g>
<g>
</g>
<g>
</g>
<g>
</g>
</svg>
