<?xml version="1.0" encoding="iso-8859-1"?>
<!-- Generator: Adobe Illustrator 19.0.0, SVG Export Plug-In . SVG Version: 6.00 Build 0)  -->
<svg xmlns="http://www.w3.org/2000/svg" xmlns:xlink="http://www.w3.org/1999/xlink" version="1.1" id="Layer_1" x="0px" y="0px" viewBox="0 0 511.999 511.999" style="enable-background:new 0 0 511.999 511.999;" xml:space="preserve">
<g>
	<polygon style="fill:#EFEFEF;" points="425.127,256 276.383,49.97 127.639,256 276.383,462.031  "/>
	<rect x="10.05" y="49.97" style="fill:#EFEFEF;" width="266.333" height="412.062"/>
</g>
<rect x="204.795" y="150.805" style="fill:#EF717A;" width="297.157" height="210.383"/>
<g>
	<path style="fill:#231F20;" d="M501.95,140.757H354.323l-69.791-96.671c-0.026-0.037-0.052-0.056-0.079-0.09   c-1.831-2.469-4.759-4.077-8.069-4.077H10.05c-5.55,0-10.05,4.5-10.05,10.05V462.03c0,5.551,4.501,10.05,10.05,10.05h266.333   c3.327,0,6.267-1.623,8.097-4.115c0.016-0.021,0.035-0.03,0.051-0.053l69.791-96.671h147.627c5.55,0,10.05-4.5,10.05-10.05V150.807   C512,145.256,507.499,140.757,501.95,140.757z M329.531,140.757H223.235l53.148-73.617L329.531,140.757z M256.732,60.02   L143.217,217.254L29.702,60.02H256.732z M166.942,250.117l-11.331-15.695l39.133-54.204v151.562l-39.133-54.204l11.331-15.695   C169.479,258.371,169.479,253.63,166.942,250.117z M20.101,81.06L146.399,256L20.101,430.941V81.06z M29.702,451.981   l113.515-157.234l113.515,157.234H29.702z M276.383,444.862l-53.149-73.618h106.297L276.383,444.862z M491.899,351.143H214.846   V160.857h277.053V351.143z"/>
	<path style="fill:#231F20;" d="M335.475,286.415c8.094,0,15.77-1.819,22.651-5.055c6.257,3.223,13.344,5.055,20.853,5.055   c25.203,0,45.708-20.504,45.708-45.708s-20.504-45.708-45.708-45.708c-1.911,0-3.79,0.132-5.639,0.361   c-9.681-9.74-23.08-15.779-37.865-15.779c-29.454,0-53.416,23.963-53.416,53.416C282.057,262.453,306.02,286.415,335.475,286.415z    M388.892,232.998c0-5.895-0.974-11.562-2.745-16.868c10.64,3.109,18.439,12.947,18.439,24.579   c0,14.12-11.487,25.607-25.607,25.607c-0.586,0-1.167-0.027-1.744-0.066C384.522,257.117,388.892,245.561,388.892,232.998z    M365.635,218.863c2.021,4.294,3.157,9.084,3.157,14.136c0,9.225-3.771,17.586-9.85,23.625c-3.481-4.374-5.569-9.904-5.569-15.915   C353.372,231.474,358.287,223.368,365.635,218.863z M335.475,199.682c5.934,0,11.505,1.567,16.336,4.296   c-11.238,8.336-18.538,21.695-18.538,36.73c0,9.294,2.795,17.944,7.579,25.167c-1.751,0.285-3.546,0.44-5.376,0.44   c-18.37,0-33.316-14.946-33.316-33.317S317.105,199.682,335.475,199.682z"/>
	<path style="fill:#231F20;" d="M339.135,306.515c-5.55,0-10.05,4.5-10.05,10.05s4.501,10.05,10.05,10.05h81.91   c5.55,0,10.05-4.5,10.05-10.05s-4.501-10.05-10.05-10.05H339.135z"/>
	<path style="fill:#231F20;" d="M285.701,326.616h16.248c5.55,0,10.05-4.5,10.05-10.05s-4.501-10.05-10.05-10.05h-16.248   c-5.55,0-10.05,4.5-10.05,10.05S280.15,326.616,285.701,326.616z"/>
</g>
<g>
</g>
<g>
</g>
<g>
</g>
<g>
</g>
<g>
</g>
<g>
</g>
<g>
</g>
<g>
</g>
<g>
</g>
<g>
</g>
<g>
</g>
<g>
</g>
<g>
</g>
<g>
</g>
<g>
</g>
</svg>
