<?xml version="1.0" encoding="iso-8859-1"?>
<!-- Generator: Adobe Illustrator 19.0.0, SVG Export Plug-In . SVG Version: 6.00 Build 0)  -->
<svg xmlns="http://www.w3.org/2000/svg" xmlns:xlink="http://www.w3.org/1999/xlink" version="1.1" id="Layer_1" x="0px" y="0px" viewBox="0 0 512 512" style="enable-background:new 0 0 512 512;" xml:space="preserve">
<path style="fill:#EF584F;" d="M275.036,41.618c-13.644,0-24.886,10.255-26.456,23.477c-1.57-13.222-12.812-23.477-26.456-23.477  c-14.719,0-26.651,11.933-26.651,26.651c0,28.034,53.105,59.225,53.105,59.225h0.005c0,0,53.105-31.192,53.105-59.225  C301.687,53.549,289.756,41.618,275.036,41.618z"/>
<g>
	<path style="fill:#EFEFEF;" d="M430.459,184.911c-0.91-17.077-14.659-31.011-31.723-32.131c-5.915-0.389-11.533,0.736-16.505,3.022   c-7.051,3.242-15.24,3.242-22.29,0c-4.969-2.285-10.583-3.408-16.494-3.023c-17.154,1.12-30.945,15.192-31.746,32.363   c-0.309,6.628,1.277,12.862,4.263,18.209c12.784,22.898,19.678,23.844,27.153,48.981l0.414,1.391c16.523,0,40.968,0,57.491,0   c0.005-0.004,0.009-0.007,0.014-0.011c7.39-25.444,12.733-27.426,25.372-50.719C429.298,197.666,430.809,191.478,430.459,184.911z"/>
	<path style="fill:#EFEFEF;" d="M372.766,253.725h-3.36c-69.307,0-125.49,56.183-125.49,125.49v119.146h254.341V379.215   C498.255,309.909,442.072,253.725,372.766,253.725z"/>
</g>
<path style="fill:#75706B;" d="M152.105,148.937H63.594c-21.913,0-39.677,17.764-39.677,39.677L13.743,333.079h35.608v168.882  h116.996V333.079h35.608l-10.174-144.465C191.782,166.701,174.018,148.937,152.105,148.937z"/>
<g>
	<rect x="84.952" y="123.874" style="fill:#EFEFEF;" width="45.798" height="45.798"/>
	<path style="fill:#EFEFEF;" d="M84.951,169.669l-49.938,12.485c-2.549,0.637-5.019-1.291-5.019-3.918v-62.93   c0-2.628,2.47-4.556,5.019-3.918l49.938,12.485V169.669z"/>
	<path style="fill:#EFEFEF;" d="M130.749,169.669l49.938,12.485c2.549,0.637,5.019-1.291,5.019-3.918v-62.93   c0-2.628-2.47-4.556-5.019-3.918l-49.938,12.485V169.669z"/>
</g>
<g>
	<path style="fill:#231F20;" d="M243.492,136.151c1.541,0.905,3.303,1.382,5.09,1.382c1.787,0,3.543-0.478,5.084-1.382   c5.943-3.492,58.06-35.051,58.06-67.882c0-20.231-16.459-36.691-36.69-36.691c-10.323,0-19.746,4.292-26.457,11.271   c-6.71-6.978-16.132-11.271-26.457-11.271c-20.231,0-36.69,16.46-36.69,36.691C185.432,101.1,237.549,132.66,243.492,136.151z    M222.122,51.656c8.41,0,15.499,6.287,16.487,14.621c0.6,5.051,4.882,8.856,9.97,8.856c5.086,0,9.37-3.804,9.97-8.855   c0.99-8.337,8.079-14.622,16.487-14.622c9.16,0,16.612,7.453,16.612,16.613c0,14.06-23.705,34.981-43.056,47.428   c-16.704-10.828-43.081-32.244-43.081-47.428C205.511,59.109,212.963,51.656,222.122,51.656z"/>
	<path style="fill:#231F20;" d="M107.85,99.969c27.562,0,49.984-22.423,49.984-49.984S135.412,0,107.85,0   S57.866,22.423,57.866,49.984S80.288,99.969,107.85,99.969z M107.85,20.078c16.49,0,29.906,13.415,29.906,29.906   S124.34,79.89,107.85,79.89S77.944,66.475,77.944,49.984S91.36,20.078,107.85,20.078z"/>
	<path style="fill:#231F20;" d="M371.085,125.403c20.963,0,38.017-17.054,38.017-38.017S392.048,49.37,371.085,49.37   s-38.017,17.054-38.017,38.017S350.122,125.403,371.085,125.403z M371.085,69.448c9.892,0,17.938,8.047,17.938,17.938   s-8.047,17.938-17.938,17.938s-17.938-8.047-17.938-17.938S361.194,69.448,371.085,69.448z"/>
	<path style="fill:#231F20;" d="M412.786,249.718c3.659-10.922,6.923-16.13,11.824-23.947c2.989-4.766,6.376-10.169,10.618-17.988   c3.872-7.136,5.69-15.229,5.255-23.404c0,0,0-0.001-0.001-0.002c-1.186-22.265-18.851-40.155-41.091-41.614   c-7.353-0.483-14.734,0.871-21.356,3.917c-4.417,2.031-9.486,2.031-13.904,0c-6.621-3.043-13.996-4.399-21.342-3.918   c-22.396,1.463-40.074,19.481-41.12,41.914c-0.384,8.258,1.526,16.408,5.525,23.571c5.012,8.974,9.283,14.925,12.716,19.707   c4.74,6.602,8.126,11.338,11.597,21.132c-56.345,16.436-97.632,68.549-97.632,130.13v119.147c0,5.544,4.496,10.039,10.039,10.039   h254.342c5.544,0,10.039-4.496,10.039-10.039V379.214C508.295,318.409,468.043,266.83,412.786,249.718z M350.892,243.685   c-4.597-13.411-9.31-19.977-14.669-27.441c-3.3-4.597-7.041-9.807-11.495-17.786c-2.172-3.891-3.21-8.334-2.999-12.847   c0.56-12.01,10.388-22.03,22.372-22.814c4.079-0.264,7.998,0.45,11.646,2.126c9.75,4.482,20.932,4.484,30.68-0.001   c3.649-1.678,7.568-2.393,11.654-2.124c11.9,0.78,21.721,10.729,22.355,22.647h0.001c0.237,4.472-0.749,8.886-2.853,12.762   c-3.943,7.265-7.152,12.384-9.983,16.9c-5.393,8.602-9.501,15.155-13.966,28.579h-20.87h-3.36H350.892z M488.217,488.323H436.34   v-63.932c0-5.544-4.496-10.039-10.039-10.039c-5.544,0-10.039,4.496-10.039,10.039v63.932h-90.353v-63.932   c0-5.544-4.496-10.039-10.039-10.039c-5.544,0-10.039,4.496-10.039,10.039v63.932h-51.876V379.214   c0-43.406,24.082-81.288,59.583-101.003c-4.912,9.163-7.707,19.624-7.707,30.728c0,5.544,4.496,10.039,10.039,10.039   c5.544,0,10.039-4.496,10.039-10.039c0-24.91,20.266-45.176,45.176-45.176s45.176,20.266,45.176,45.176   c0,5.544,4.496,10.039,10.039,10.039c5.544,0,10.039-4.496,10.039-10.039c0-11.104-2.795-21.565-7.708-30.728   c35.502,19.715,59.585,57.597,59.585,101.003L488.217,488.323L488.217,488.323z"/>
	<path style="fill:#231F20;" d="M201.82,188.24c-0.062-8.466-2.267-16.424-6.076-23.386v-49.549c0-4.367-1.975-8.412-5.417-11.098   c-3.441-2.685-7.844-3.618-12.076-2.559l-48.738,12.185H86.186l-48.735-12.184c-4.235-1.062-8.638-0.127-12.079,2.558   c-3.442,2.686-5.417,6.731-5.417,11.098v49.55c-3.808,6.962-6.013,14.92-6.076,23.385L3.729,332.374   c-0.195,2.778,0.772,5.513,2.67,7.55s4.559,3.194,7.344,3.194h25.569v158.841c0,5.544,4.496,10.039,10.039,10.039h116.996   c5.544,0,10.039-4.496,10.039-10.039V343.118h25.569c2.785,0,5.445-1.157,7.344-3.194s2.865-4.773,2.67-7.551L201.82,188.24z    M140.788,131.71l34.878-8.72v47.56l-34.878-8.72V131.71z M120.709,159.63H94.99v-25.718h25.719   C120.709,133.911,120.709,159.63,120.709,159.63z M40.033,122.99l34.878,8.72v30.121l-34.878,8.72   C40.033,170.551,40.033,122.99,40.033,122.99z M166.348,323.04c-5.544,0-10.039,4.496-10.039,10.039v158.842h-38.42V355.653   c0-5.544-4.496-10.039-10.039-10.039c-5.544,0-10.039,4.496-10.039,10.039v136.268H59.39V333.079   c0-5.544-4.496-10.039-10.039-10.039H24.514l9.207-130.733c0.093,0.002,0.187,0.012,0.28,0.012c1.146,0,2.302-0.141,3.446-0.427   l48.738-12.186h43.327l48.738,12.186c1.144,0.286,2.3,0.427,3.446,0.427c0.093,0,0.187-0.01,0.28-0.012l9.207,130.733H166.348z"/>
	<path style="fill:#231F20;" d="M426.301,357.813c-5.544,0-10.039,4.496-10.039,10.039v2.008c0,5.544,4.496,10.039,10.039,10.039   c5.544,0,10.039-4.496,10.039-10.039v-2.008C436.34,362.308,431.845,357.813,426.301,357.813z"/>
	<path style="fill:#231F20;" d="M107.849,281.865c-2.64,0-5.23,1.073-7.098,2.941c-1.866,1.867-2.941,4.457-2.941,7.098   s1.074,5.23,2.941,7.097c1.867,1.867,4.457,2.942,7.098,2.942c2.65,0,5.23-1.074,7.098-2.942c1.866-1.866,2.941-4.456,2.941-7.097   s-1.074-5.23-2.941-7.098C113.079,282.938,110.498,281.865,107.849,281.865z"/>
	<path style="fill:#231F20;" d="M107.849,238.696c-5.542,0-10.039,4.497-10.039,10.039c0,5.542,4.498,10.039,10.039,10.039   c5.542,0,10.039-4.498,10.039-10.039C117.888,243.193,113.39,238.696,107.849,238.696z"/>
	<path style="fill:#231F20;" d="M107.849,195.528c-2.64,0-5.23,1.073-7.098,2.941c-1.866,1.867-2.941,4.457-2.941,7.098   s1.074,5.23,2.941,7.097c1.867,1.867,4.457,2.942,7.098,2.942s5.23-1.074,7.098-2.942c1.866-1.866,2.941-4.456,2.941-7.097   s-1.074-5.23-2.941-7.098C113.079,196.601,110.498,195.528,107.849,195.528z"/>
</g>
<g>
</g>
<g>
</g>
<g>
</g>
<g>
</g>
<g>
</g>
<g>
</g>
<g>
</g>
<g>
</g>
<g>
</g>
<g>
</g>
<g>
</g>
<g>
</g>
<g>
</g>
<g>
</g>
<g>
</g>
</svg>
